<svg xmlns="http://www.w3.org/2000/svg" viewBox="0 0 126 126"><path d="M21.51,114.81C41.1,130.08 69.37,129.03 87.93,112.44C108.1,94.4 107.27,61.98 91.39,41.37C91.24,41.17 91.08,41 90.91,40.84C92.1,39.74 93.29,38.65 94.48,37.55C94.73,37.65 95.01,37.74 95.33,37.79C99.64,38.37 103.59,39.54 107.44,41.6C108.76,42.31 110.25,42.09 111.35,41.09C116.34,36.55 120.93,31.66 125.14,26.39C126.69,24.45 125.84,21.23 123.01,21.24C117.56,21.28 112.11,21.27 106.67,21.33C106.03,21.34 103.9,21.73 103.4,21.4C102.77,20.99 102.17,18.41 101.88,17.63C100.79,14.71 99.78,11.92 99.23,8.84C99.1,8.05 98.43,7.83 97.83,7.98C97.65,7.94 97.44,7.94 97.25,8.05C92.82,10.44 88.49,15.66 85.95,19.99C83.43,24.3 87.65,29.57 90.12,32.98C90.15,33.04 90.2,33.07 90.23,33.12C88.83,34.45 87.42,35.79 86.01,37.12C83.71,34.78 81.19,32.69 78.43,30.84C69.62,24.91 58.84,22.18 48.26,23.05C27.21,24.77 7.54,39.31 2.33,60.22C-2.64,80.14 5.4,102.25 21.51,114.81M105.37,27.17C107.2,27.21 109.1,27.05 110.76,27.07C112.65,27.1 114.53,27.14 116.42,27.17C113.92,29.86 111.3,32.44 108.57,34.91C105.98,33.64 103.32,32.64 100.53,31.96C101.9,30.7 105.21,27.52 105.37,27.17M91.93,21.67C92.41,20.74 92.9,19.81 93.4,18.9C94.59,16.7 95.99,14.54 97.09,12.28C97.3,16.07 97.39,21.55 99.24,24.58C97.84,25.91 96.45,27.23 95.05,28.56C94.09,27.05 90.32,23.42 91.93,21.67M8.25,67.14C10.44,48.75 25.31,34.99 42.9,30.91C52.96,28.58 63.29,30.17 72.58,34.55C75.82,36.08 79.21,38.12 82.41,40.54C79.64,43.18 76.86,45.82 74.09,48.46C73.29,49.22 72.5,49.99 71.7,50.76C70.34,49.41 68.85,48.21 67.2,47.16C61.82,43.73 55.34,42.61 49.07,43.46C36.69,45.15 25.83,54.74 23.93,67.29C22.06,79.58 28.06,92.22 38.54,98.82C50.36,106.26 66.47,104.24 76.1,94.07C86.64,82.95 84.97,65.83 76.45,54.09C77.02,53.57 77.6,53.05 78.17,52.53C80.56,50.34 82.94,48.15 85.32,45.96C85.34,45.98 85.35,46 85.36,46.02C97.99,61.66 100.97,87.06 87.57,103.14C73.76,119.7 48.74,123.57 30.43,112.46C15.13,103.2 6.12,84.95 8.25,67.14M51.66,74.77C54.05,73.5 56.26,71.85 58.38,70.1C66.59,77 48.09,87.37 45.64,75.24C44.87,71.46 47.6,66.96 51.26,65.83C53.2,65.24 54.85,65.34 56.29,65.94C56.28,65.94 56.28,65.95 56.28,65.95C54.04,68.25 51.91,70.65 50.23,73.34C49.67,74.26 50.78,75.24 51.66,74.77M59.45,62.79C56.66,61.07 52.81,60.3 50.4,60.84C42.78,62.56 37.96,71.33 40.89,78.63C44.07,86.57 53.84,88.64 60.67,84.07C66.94,79.88 68.27,71.06 63.25,65.87C63.64,65.52 68.72,61.08 70.84,59.18C78.86,69.48 78.93,85.53 66.96,92.98C54.81,100.55 39.09,95.11 33.08,82.51C27.6,71 31.96,57.94 43.53,52.41C49.07,49.77 54.92,49.48 60.76,51.24C62.96,51.9 65.54,52.95 68.02,54.32C65.83,56.43 60.16,62.1 59.45,62.79Z" fill="currentColor" fill-rule="nonzero"/></svg>