<svg xmlns="http://www.w3.org/2000/svg" viewBox="0 0 119 121"><path d="M118.2,119.47C115.93,121.07 114.73,121.07 113.13,119.61C107.8,114.54 102.73,109.2 97.39,104.14C93.66,100.67 89.66,97.47 85.93,93.87C82.73,90.8 79.66,87.73 76.46,84.54C75.79,83.87 75.26,83.07 74.59,82.67C70.33,80.14 67.93,75.87 65.12,72.14C64.19,70.94 63.12,69.88 62.19,68.81C58.33,64.41 54.46,60.01 50.33,55.74C47.8,53.21 44.73,51.07 42.19,48.54C37.53,44.01 32.86,39.34 28.33,34.41C25.66,31.6 23.26,28.41 20.86,25.34C20.59,24.94 20.19,24.67 19.93,24.14C16.99,18.28 11.93,14.54 7.26,10.41C6.06,9.34 4.59,8.41 3.4,7.21C1.53,5.73 1,3.47 2.33,1.73C3,0.8 3.93,0.27 5.14,0.93C6.2,1.46 7.4,1.86 8.2,2.67C13.54,8.27 19,13.86 23.94,19.73C31.67,29.07 40.2,37.87 48.74,46.4C55.01,52.67 61.27,59.2 67.41,65.6C70.07,68.4 72.47,71.33 75.01,74.13C79.14,78.53 83.41,83.06 87.67,87.33C91.67,91.33 95.94,95.19 99.94,99.19C103.01,102.26 105.67,105.59 109.01,108.53C111.81,110.93 114.34,113.46 116.34,116.39C116.87,117.47 117.53,118.4 118.2,119.47L118.2,119.47Z" fill="currentColor" fill-rule="nonzero"/><path d="M97.67,119.74C96.87,119.6 95.93,119.87 95.27,119.47C93.27,118.54 91.27,117.33 89.4,116.14C83.67,112.4 79,107.33 73.14,103.6C69,100.94 65.27,97.34 61.54,94.14C60.2,92.94 59.27,91.33 58.2,90C56.2,87.47 53.67,85.2 52.07,82.53C49.93,79.06 47.27,76.13 44.74,73.06C42.07,69.87 39.54,66.53 36.33,64.13C31.27,60.27 27.14,55.73 23.53,50.53C21.13,47.06 17.8,44 14.87,40.93C11.53,37.33 7.93,34 4.73,30.27C3.93,29.33 3.8,27.74 3.4,26.13C3.93,26 4.46,25.73 4.87,25.87C5.8,26.13 6.73,26.53 7.53,27.2C11.53,30.4 15.8,33.33 19.4,36.8C25.4,42.66 31,49.06 36.87,55.06C40.33,58.66 43.8,62.13 47,66C53.14,73.46 59.53,80.53 65.93,87.73C68.46,90.53 70.87,93.33 73.53,95.87C75.93,98.13 78.6,100.27 81,102.4C83.53,104.53 86.07,106.8 88.6,108.93C92.07,112 95.13,115.33 97.8,119.06C97.8,119.33 97.67,119.6 97.67,119.74Z" fill="currentColor" fill-rule="nonzero"/><path d="M117.67,97.6C116.07,98.13 115.27,97.33 114.47,96.27C111,91.86 107.54,87.46 103.8,83.33C100.2,79.2 96.2,75.33 92.47,71.47C88.87,67.73 84.73,64.27 81.94,60C78.47,55.07 74.07,51.2 70.07,46.8C67.14,43.6 64.6,40.14 61.81,36.94C60.21,35.07 58.21,33.34 56.61,31.34C54.74,29.2 53.01,26.94 51.28,24.67C46.34,18.41 41.54,12.14 36.61,5.87C35.81,4.94 35.54,4.01 36.47,3.07C37.67,1.87 39.01,1.73 40.07,2.67C41.81,4.27 43.54,5.86 45.01,7.73C50.6,14.27 56.34,20.54 61.14,27.6C61.54,28.27 62.07,28.93 62.61,29.46C66.75,34.27 70.88,38.93 75.01,43.73C75.41,44.26 75.94,44.8 76.34,45.2C82.75,51.46 89.41,57.6 95.68,64.13C103.01,71.99 109.81,80.13 114.34,89.99C115.01,91.33 115.94,92.52 116.75,93.73C117.53,94.8 118.07,96 117.67,97.6L117.67,97.6Z" fill="currentColor" fill-rule="nonzero"/><path d="M118.2,68.8C118.33,70.4 117.13,71.2 115.93,70.27C114.46,69.2 113.13,67.74 112.07,66.27C108.87,62.27 105.67,58.14 102.6,54.01C100.73,51.47 99,48.67 97.13,46.01C96.06,44.54 94.99,43.2 93.93,41.74C93.67,41.34 93.13,41.07 93,40.54C92.2,37.07 89.67,34.81 87.67,32.14C85.14,28.67 82.6,25.21 79.93,21.74C77.27,18.27 74.46,14.81 71.8,11.34C70.33,9.34 68.86,7.47 68.46,4.94C68.33,4.01 68.2,3.2 69.13,2.67C70.2,2.01 70.99,2.67 71.66,3.34C74.86,7.07 78.06,10.81 81.26,14.54C84.19,18.14 87.26,21.6 90.06,25.2C92.86,28.67 95.66,32.27 98.33,35.87C102.19,40.94 105.93,46.01 109.8,51.2C113.53,56.27 115.53,62.4 118.06,68.14C118.07,68.4 118.2,68.67 118.2,68.8Z" fill="currentColor" fill-rule="nonzero"/><path d="M71.14,120.4C69,119.47 66.73,118.8 64.87,117.47C62.07,115.47 59.67,113.07 57.01,110.8C55.67,109.73 54.07,108.8 52.87,107.6C49.67,104.54 46.6,101.2 43.4,98.01C38.47,93.34 33.54,88.81 28.6,84.14C23.27,78.94 17.93,73.74 12.6,68.54C10.6,66.54 8.46,64.68 6.46,62.54C4.86,60.94 3.4,59.21 1.93,57.61C1,56.68 0.86,55.48 1.27,54.28C1.8,52.94 2.86,52.54 3.93,53.48C5,54.28 5.93,55.34 7,56.28C8.2,57.48 9.27,59.08 10.73,60.01C16.73,63.75 21,69.35 26.2,73.88C31.14,78.28 35.54,83.47 40.34,88.01C46.07,93.61 51.41,99.61 57.81,104.68C62.61,108.41 66.61,113.08 70.88,117.48C71.41,118.01 71.68,118.95 71.94,119.62C71.53,120 71.4,120.14 71.14,120.4L71.14,120.4Z" fill="currentColor" fill-rule="nonzero"/><path d="M1.8,73.2C5.27,75.73 8.87,77.73 11.8,80.27C15.27,83.33 18.2,87.2 21.67,90.27C25.67,93.73 30.07,96.67 34.33,99.86C35.14,100.4 35.93,101.06 36.6,101.73C39.27,104.66 41.8,107.59 44.46,110.4C45.93,111.99 47.66,113.59 49.27,115.2C50.33,116.27 51.27,117.46 52.33,118.67C50.47,120.67 50.07,120.53 48.2,119.6C43.67,117.33 40.73,113.46 37,110.27C33.4,107.2 29.53,104.27 25.93,101.07C22.46,98 19.13,94.67 15.67,91.47C11.4,87.47 7.27,83.47 2.86,79.73C1.53,78.54 0.86,77.07 0.86,75.47C0.73,74.67 1.27,74.14 1.8,73.2Z" fill="currentColor" fill-rule="nonzero"/><path d="M88.73,1.07C89.14,1.6 89.4,2 89.8,2.27C94.2,7.6 98.6,13.07 103,18.4C103.4,18.8 103.8,19.33 104.2,19.74C108.6,23.74 111.93,28.54 115.13,33.47C116.33,35.2 117,37.2 118.06,39.47C115.66,39.74 114.06,38.67 113,37.33C110.59,34.67 108.46,31.74 106.19,28.93C104.72,27.2 103.13,25.6 101.66,23.87C98.46,20.27 95.26,16.67 92.33,12.93C91.26,11.46 90.59,9.74 89.8,8C89.27,6.93 88.73,6 88.2,4.93C87.67,3.74 87.27,2.4 88.73,1.07Z" fill="currentColor" fill-rule="nonzero"/><path d="M1.8,94.8C13,100.94 21.27,109.47 30.47,117.07C31.14,117.6 31.4,118.4 32.07,119.33C30.47,120.14 29.27,119.87 27.8,119.2C25.14,117.73 22.87,115.87 20.47,114C14.73,109.47 8.73,105.07 2.73,100.8C1.54,99.87 1.67,98.8 1.4,97.73C1,96.8 1.53,95.87 1.8,94.8Z" fill="currentColor" fill-rule="nonzero"/><path d="M109,3.2C109.67,3.6 110.2,3.86 110.6,4.27C113.13,6.93 115.67,9.46 118.07,12.13C118.87,12.93 118.73,14 117.93,14.8C117.13,15.6 116.2,15.6 115.27,14.66C112.73,12.27 110.07,10 107.67,7.33C107.14,6.8 107.4,5.47 107.53,4.67C107.8,4.14 108.47,3.73 109,3.2Z" fill="currentColor" fill-rule="nonzero"/><path d="M15.4,119.86C14.2,121.06 13.14,120.4 12.2,119.73C10.73,118.66 9.4,117.59 7.94,116.53C6.34,115.33 4.74,114.27 3.14,113.2C2.6,112.8 2.07,112.53 1.94,112C1.8,111.47 1.8,110.53 2.07,110.14C2.33,109.73 3,109.6 3.67,109.47C3.93,109.47 4.47,109.73 4.73,110C7.93,112.67 11.14,115.47 14.33,118.14C14.73,118.53 15,119.2 15.4,119.86Z" fill="currentColor" fill-rule="nonzero"/></svg>